<svg id="Layer_1" data-name="Layer 1" xmlns="http://www.w3.org/2000/svg" viewBox="0 0 91.71 91.71"><defs><style>.cls-1,.cls-2{fill:none;stroke-miterlimit:10;stroke-width:3px;}.cls-1{stroke:#2d2e2f;}.cls-2{stroke:#1f2ba3;}</style></defs><title>IncludeOS</title><path class="cls-1" d="M55.62,90.21H36.48q0-5.81,0-11.62c0-.35,0-.64-.44-.81-1.81-.67-3.6-1.4-5.39-2.14a.65.65,0,0,0-.86.16c-1.35,1.38-2.73,2.74-4.1,4.12L21.55,84.1,7.94,70.49c.14-.15.31-.34.5-.52,2.42-2.42,4.82-4.87,7.28-7.24A1.21,1.21,0,0,0,16,61c-.79-1.71-1.49-3.46-2.16-5.22a.8.8,0,0,0-.89-.64c-3.54,0-7.09,0-10.63,0H1.5V36H13c.34,0,.67.05.86-.41.75-1.83,1.53-3.65,2.33-5.46a.65.65,0,0,0-.15-.86c-1.19-1.15-2.34-2.34-3.51-3.5L7.94,21.26,21.53,7.63a.61.61,0,0,1,.13.09q4,4,8,8.08a.79.79,0,0,0,1,.2c1.53-.67,3.08-1.31,4.64-1.91a.83.83,0,0,0,.63-.92c0-3.61,0-7.23,0-10.84,0-.27,0-.54,0-.83h19.2V13.74c1.93.84,3.77,1.62,5.6,2.43a.75.75,0,0,0,1-.2c1.39-1.42,2.8-2.81,4.2-4.22l4.13-4.18L83.83,21.25a7.11,7.11,0,0,0-.7.55l-7.72,7.71c-.26.26-.45.44-.25.89.77,1.72,1.5,3.46,2.17,5.23a1.06,1.06,0,0,0,1.18.86c3.9,0,7.8,0,11.69,0V55.61c-.28,0-.56,0-.85,0-3.71,0-7.42,0-11.13,0a.93.93,0,0,0-1,.72q-.93,2.41-2,4.76a.76.76,0,0,0,.18,1c2,2,4,4,6.07,6,.78.77,1.6,1.51,2.26,2.13L70.1,84l-.17-.15q-4.08-4.09-8.15-8.18a.75.75,0,0,0-1-.21q-2.23,1-4.49,1.9a.9.9,0,0,0-.68,1c0,1.58,0,3.17,0,4.75Q55.64,86.66,55.62,90.21Zm9.91-44.39A19.93,19.93,0,1,0,45.61,65.77,20,20,0,0,0,65.53,45.82Z"/><circle class="cls-2" cx="45.85" cy="45.85" r="8.94"/></svg>