<svg id="Layer_1" data-name="Layer 1" xmlns="http://www.w3.org/2000/svg" viewBox="0 0 100.98 106.35"><defs><style>.cls-1,.cls-2{fill:none;stroke-miterlimit:10;stroke-width:3px;}.cls-1{stroke:#2d2e2f;}.cls-2{stroke:#1f2ba3;}</style></defs><title>IncludeOS</title><path class="cls-1" d="M55,24.79l3.4-3.86A94.23,94.23,0,0,1,68.71,10.85,39.54,39.54,0,0,1,92.44,1.7q2.64-.15,5.29-.2c1.19,0,1.76.53,1.75,1.67a50.33,50.33,0,0,1-3,18.11,45.14,45.14,0,0,1-7.38,12.21C85.38,38,81,41.73,76.67,45.54l-.45.41a5.14,5.14,0,0,0,.37.57,7.17,7.17,0,0,1,1.25,7.32,18.61,18.61,0,0,1-3.57,6.06c-4.63,5.62-10.44,9.87-16.45,13.87a1.58,1.58,0,0,1-2.39-.27c-.79-.77-1.55-1.58-2.35-2.34a1.76,1.76,0,0,1-.47-2c1.16-3.7,2.28-7.42,3.45-11.12a1.13,1.13,0,0,0-.31-1.33Q50,51,44.27,45.21A1.07,1.07,0,0,0,43,44.9c-3.65,1.15-7.31,2.24-10.95,3.4a2.1,2.1,0,0,1-2.48-.63c-.69-.78-1.46-1.5-2.21-2.23a1.49,1.49,0,0,1-.25-2.16c2.09-3,4.11-6,6.32-8.91a44.71,44.71,0,0,1,7.5-7.81A17,17,0,0,1,48,22.74a7,7,0,0,1,6.14,1.43C54.43,24.37,54.69,24.56,55,24.79Zm27.21-6a4.3,4.3,0,1,0,0-6.06A4.35,4.35,0,0,0,82.21,18.79Z"/><line class="cls-1" x1="63.12" y1="36.83" x2="42.73" y2="58.55"/><line class="cls-1" x1="55.64" y1="24.06" x2="42.73" y2="45.78"/><line class="cls-1" x1="76.67" y1="45.54" x2="56.44" y2="56.83"/><line class="cls-2" x1="29.02" y1="57.93" x2="17.5" y2="69.5"/><line class="cls-2" x1="12.59" y1="74.19" x2="1.06" y2="85.77"/><line class="cls-2" x1="23.26" y1="84.5" x2="2.25" y2="105.28"/><line class="cls-2" x1="40.02" y1="70.05" x2="28.49" y2="81.63"/><line class="cls-2" x1="30.33" y1="68.38" x2="13.64" y2="84.5"/></svg>