<svg id="Layer_1" data-name="Layer 1" xmlns="http://www.w3.org/2000/svg" viewBox="0 0 103.3 103.3"><defs><style>.cls-1{fill:none;stroke:#2d2e2f;stroke-miterlimit:10;stroke-width:3px;}.cls-2{fill:#1f2ba3;}</style></defs><title>IncludeOS</title><circle class="cls-1" cx="51.65" cy="51.65" r="50.15"/><rect class="cls-1" x="28.77" y="42.74" width="45.77" height="38.45" rx="12" ry="12"/><path class="cls-2" d="M51.65,53.23a4.42,4.42,0,0,1,2.12,8.3h.08v8H49.45v-8h.11a4.41,4.41,0,0,1,2.1-8.3m0-3a7.42,7.42,0,0,0-5.2,12.71v9.6H56.86v-9.6a7.42,7.42,0,0,0-5.2-12.71Z"/><path class="cls-1" d="M59.49,31.84c0-3.53-3.53-6.42-7.84-6.42s-7.84,2.89-7.84,6.42v10.9H59.49Z"/><path class="cls-1" d="M65.41,30.38c0-6.2-6.19-11.28-13.76-11.28S37.89,24.18,37.89,30.38V42.74H65.41Z"/></svg>