<?xml version="1.0" encoding="utf-8"?>
<!-- Generator: Adobe Illustrator 20.0.0, SVG Export Plug-In . SVG Version: 6.00 Build 0)  -->
<svg version="1.1" id="Layer_1" xmlns="http://www.w3.org/2000/svg" xmlns:xlink="http://www.w3.org/1999/xlink" x="0px" y="0px"
	 viewBox="0 0 313 67.2" style="enable-background:new 0 0 313 67.2;" xml:space="preserve">
<style type="text/css">
	.st0{fill:#1B1B1B;}
	.st1{fill:#211F20;}
	.st2{fill:none;stroke:#2D2E2F;stroke-width:3;stroke-miterlimit:10;}
	.st3{fill:none;stroke:#1F2BA3;stroke-width:3;stroke-miterlimit:10;}
	.st4{fill:#1F2BA3;}
	.st5{fill:url(#SVGID_1_);}
	.st6{opacity:0.2;clip-path:url(#SVGID_3_);}
	.st7{fill:none;stroke:#9BA1B9;stroke-linejoin:round;stroke-miterlimit:10;}
	.st8{opacity:0.4;fill:url(#SVGID_4_);}
	.st9{fill:#5B89EC;}
	.st10{fill:#6A36F9;}
	.st11{fill:#FFFFFF;}
	.st12{fill:#AFB8C9;}
	.st13{opacity:0.2;fill:#3245A5;}
	.st14{opacity:0.5;fill:#3245A5;}
	.st15{opacity:0.5;fill:#FFFFFF;}
	.st16{opacity:0.1;fill:#3245A5;}
	.st17{fill:#4053C5;}
	.st18{opacity:0.2;fill:url(#SVGID_5_);}
	.st19{opacity:0.5;}
	.st20{opacity:0.8;clip-path:url(#SVGID_7_);}
	.st21{fill:none;stroke:#333F5F;stroke-linejoin:round;stroke-miterlimit:10;}
	.st22{fill:url(#SVGID_8_);}
	.st23{opacity:0.2;clip-path:url(#SVGID_10_);}
	.st24{fill:url(#SVGID_11_);}
	.st25{opacity:0.2;clip-path:url(#SVGID_13_);}
	.st26{fill:#6A87E7;}
	.st27{fill:#282F9E;}
	.st28{fill:#5F39F3;}
	.st29{fill:#AFB6C6;}
	.st30{fill:#282828;}
</style>
<polygon class="st26" points="29.4,15.1 44.6,23.9 57.7,16.4 29.4,0 1.1,16.4 7.9,20.3 14.2,23.9 "/>
<polygon class="st27" points="45.6,43.3 30.4,52.1 30.4,53.3 30.4,67.2 58.8,50.9 58.8,18.2 45.6,25.7 "/>
<polygon class="st28" points="13.1,43.3 13.1,25.7 12.8,25.5 0,18.2 0,50.9 28.3,67.2 28.3,53.3 28.3,52.1 "/>
<polygon class="st11" points="16.4,25.2 16.4,25.2 18.3,26.3 29.4,32.7 42.5,25.1 29.4,17.6 16.3,25.1 "/>
<polygon class="st29" points="43.5,27 30.4,34.5 30.4,49.7 43.5,42.1 "/>
<polygon class="st27" points="28.3,49.7 28.3,34.5 15.2,27 15.2,42.1 "/>
<g>
	<path class="st30" d="M83.6,19.3c-1.9,0-3.5-1.5-3.5-3.4s1.5-3.4,3.4-3.4c1.9,0,3.4,1.5,3.4,3.4C86.9,17.7,85.4,19.3,83.6,19.3z
		 M80.7,52.1V24.6h5.7v27.5H80.7z"/>
	<path class="st30" d="M111.3,52.1V35.4c0-3.8,0-6.4-4.2-6.4c-2,0-4.5,0.5-7,1.3v21.8h-5.7V24.6h5.4V27c4-2,7.1-3,9.7-3
		c2.8,0,4.9,1,6.2,2.8c1.1,1.6,1.3,3,1.3,7.3v17.9H111.3z"/>
	<path class="st30" d="M133.8,52.7c-6.6,0-10.9-4.9-10.9-14.1c0-9,4.8-14.6,11.7-14.6c2.3,0,5.3,0.5,9.1,1.9l-0.9,3.6
		c-3.1-0.7-4.5-0.9-6.6-0.9c-4.8,0-7.3,3.3-7.3,9.9c0,6.3,2.4,9.5,6.8,9.5c1.9,0,4.5-0.5,7.4-1.4l1.1,3.4
		C140,51.7,136.5,52.7,133.8,52.7z"/>
	<path class="st30" d="M149.1,52.1V10.9h5.7v41.2H149.1z"/>
	<path class="st30" d="M179.6,52.1v-2.3c-4,2-7.1,3-9.6,3c-3,0-5-1-6.2-2.7c-1.2-1.7-1.4-3.3-1.4-7.3V24.6h5.7v16.7
		c0,3.8,0,6.4,4.2,6.4c2,0,4.5-0.5,7-1.3V24.6h5.7v27.5H179.6z"/>
	<path class="st30" d="M209.8,52.1v-2.5c-3.3,1.9-6.4,3.1-9.1,3.1c-5.9,0-9.4-5.4-9.4-14.3c0-8.8,4-14.5,10-14.5c3,0,5.7,1.6,8.2,3
		V10.9h5.7v41.2H209.8z M209.5,30.4c-3.5-1.2-4.6-1.5-6.3-1.5c-3.8,0-5.9,3.1-5.9,9.3c0,6.6,1.9,9.6,5.7,9.6c1.6,0,3.1-0.3,6.5-1.6
		V30.4z"/>
	<path class="st30" d="M227.5,39.1V40c0,5.5,2.3,8,6.6,8c2.5,0,4.8-0.5,9.2-1.9l1,3.4c-5.7,2.5-8.5,3.3-11.8,3.3
		c-6.7,0-11.1-5-11.1-13.5c0-9.2,4.5-15.3,12.1-15.3c7.4,0,11.1,4.5,11.1,13.8v1.3H227.5z M234.1,28c-3.7,0-5.9,2.7-6.4,7.8
		l11.6-0.5C239.2,30.3,237.6,28,234.1,28z"/>
</g>
<path class="st30" d="M284.4,30.7c-0.2-1.9-0.7-3.7-1.4-5.6c-0.8-2.1-1.9-3.7-3.3-5.1c-1.8-1.8-4.1-2.9-6.7-3.5
	c-1.2-0.2-2.4-0.3-3.5-0.3c-1.4,0-2.8,0.2-4.2,0.5c-1.9,0.4-3.6,1.2-5,2.4c-2.1,1.6-3.6,3.7-4.6,6.5c-0.9,2.3-1.4,4.8-1.5,7.7
	c-0.2,3.7,0.1,6.9,0.8,9.9c0.8,3.3,2,5.7,3.9,7.6c1.2,1.3,2.6,2.2,4.3,2.9c1.6,0.6,3.3,1,5.4,1.1c2.2,0.1,4.4-0.1,6.4-0.8
	c2.5-0.8,4.6-2.2,6.2-4.2c1.6-2,2.7-4.5,3.3-7.7c0.5-2.2,0.6-4.6,0.7-6.5c0-0.5-0.1-1-0.1-1.5C284.7,33,284.6,31.8,284.4,30.7z
	 M280.6,35.1c0,0.2,0,0.4,0,0.6c0,2.8-0.2,5.1-0.6,7.2c-0.7,2.9-1.6,4.9-3.2,6.5c-1.3,1.4-3.1,2.2-5.1,2.5c-0.7,0.1-1.4,0.2-2.2,0.2
	c-1.3,0-2.7-0.2-3.9-0.6c-2.8-0.9-4.7-2.8-5.7-5.6c-1.3-3.6-1.8-7.6-1.6-12.3c0.1-2.4,0.4-4.5,1-6.3c0.9-2.8,2.2-4.8,4.1-6.2
	c1.1-0.8,2.5-1.4,4-1.6c1.7-0.3,3.4-0.3,4.9,0.1c3,0.6,5.2,2.4,6.6,5.4c1.4,3,1.7,6.1,1.8,9.1C280.6,34.3,280.6,34.7,280.6,35.1z"/>
<path class="st30" d="M312.1,39.1c-0.6-1.4-1.7-2.5-3.5-3.6c-2.1-1.2-4.5-1.9-6.5-2.6c-1.7-0.5-3.5-1.1-5.1-1.9
	c-1.8-0.9-2.6-2.2-2.7-3.9c0-0.6,0-1.3,0.1-2.1c0.1-1.2,0.6-2.3,1.4-3.2c1.2-1.4,2.8-2.2,4.9-2.4c0.5,0,1-0.1,1.6-0.1
	c2.1,0,4.2,0.4,6.1,0.7c0.6,0.1,1.2,0.2,1.8,0.3l0.5,0.1l0.6-2.6c-3.1-0.8-5.7-1.3-8.2-1.4c-0.5,0-0.9,0-1.3,0c-2,0-3.7,0.3-5.3,0.9
	c-2.3,0.9-3.9,2.4-4.9,4.4c-0.9,1.8-1.2,3.9-0.9,6.2c0.3,2.4,1.4,4.3,3.3,5.7c1.7,1.2,3.6,1.9,5.5,2.6c0.5,0.2,1.1,0.4,1.6,0.6
	c1.6,0.6,3.3,1.1,4.9,1.9c1.9,1,2.9,2.3,3.1,4.2c0.1,1.3,0.2,3-0.7,4.6c-1.2,2.2-3.3,3.5-6.3,3.9c-0.7,0.1-1.4,0.2-2.2,0.2
	c-2,0-4-0.4-5.8-0.7c-0.6-0.1-1.3-0.3-1.9-0.4c-0.4-0.1-0.9-0.2-1.3-0.3c-0.2,0.7-0.4,1.4-0.6,2.1l-0.2,0.6c0.5,0.1,1,0.2,1.5,0.4
	c1.2,0.3,2.4,0.6,3.6,0.8c1.1,0.2,2.3,0.3,3.5,0.4l0.7,0c2.6,0.2,4.9-0.1,7-1c3.1-1.2,5.1-3.4,6-6.4c0.5-1.8,0.7-3.6,0.4-5.5
	C312.7,40.7,312.5,39.9,312.1,39.1z"/>
</svg>
